<svg id="Layer_1" data-name="Layer 1" xmlns="http://www.w3.org/2000/svg" viewBox="0 0 348.4 342.15"><defs><style>.cls-1{fill:#42b649;}</style></defs><title>contact-icon</title><g id="Group_22" data-name="Group 22"><g id="Group_21" data-name="Group 21"><path id="Path_36" data-name="Path 36" class="cls-1" d="M145.24,270.47c15.44,21.73,30.48,40.75,40.37,52.88,2.15,2.68,4.16,5.1,6,7.3l3,3.58a6.38,6.38,0,0,0,9,.39,4.78,4.78,0,0,0,.45-.45l2.9-3.52c1.83-2.2,3.83-4.62,6-7.26,9.92-12.15,25-31.17,40.4-52.88a534,534,0,0,0,40.15-64.7c11.82-23.22,17.79-42,17.79-55.9a112.07,112.07,0,0,0-32.88-79l-.09-.08-.06-.05a111.37,111.37,0,0,0-157.5-.91l-.66.66A111.89,111.89,0,0,0,87.29,149.9c0,13.87,6,32.67,17.8,55.91A532.24,532.24,0,0,0,145.24,270.47Zm10-171a61.77,61.77,0,0,1,44-18.22,6.22,6.22,0,0,1,0,12.44,49.76,49.76,0,1,0,35.19,14.57,6.22,6.22,0,0,1,8.62-9l.18.19a62.21,62.21,0,1,1-88,0h0Z" transform="translate(-25.07 -37.74)"/><path id="Path_37" data-name="Path 37" class="cls-1" d="M372.7,370.87l-38.26-68.43a6.85,6.85,0,0,0-6.08-3.43H247.79c-9.76,12.94-18.66,24.1-25.24,32.18-1.5,1.87-2.85,3.49-4.22,5.15H249a6.22,6.22,0,0,1,0,12.44H149.5a6.22,6.22,0,1,1,0-12.44h30.7c-1.38-1.66-2.74-3.3-4.26-5.18-6.58-8.06-15.45-19.21-25.2-32.15H70.18a6.87,6.87,0,0,0-6.07,3.39L25.84,370.83a5.53,5.53,0,0,0,0,5.7,6.85,6.85,0,0,0,6,3.36H366.61a6.83,6.83,0,0,0,6-3.33A5.53,5.53,0,0,0,372.7,370.87Zm-260.53-3.42H62.4a6.23,6.23,0,0,1,0-12.45h49.77a6.23,6.23,0,0,1,0,12.45Zm17.62-27.66a6.23,6.23,0,0,1-8.63,1.73l-17.08-11.4h-23a6.22,6.22,0,0,1,0-12.44H106a6.21,6.21,0,0,1,3.45,1l18.66,12.45a6.23,6.23,0,0,1,1.73,8.63Zm144.12,2.77a6.21,6.21,0,0,1-3.45-11.39l18.66-12.45a6.25,6.25,0,0,1,3.46-1h24.88a6.22,6.22,0,1,1,0,12.44h-23l-17.1,11.4a6.17,6.17,0,0,1-3.43,1Zm62.21,24.89H286.36a6.22,6.22,0,0,1,0-12.44h49.77a6.22,6.22,0,0,1,0,12.44Z" transform="translate(-25.07 -37.74)"/></g></g></svg>