<svg id="Layer_1" data-name="Layer 1" xmlns="http://www.w3.org/2000/svg" viewBox="0 0 616.63 305.52"><defs><style>.cls-1,.cls-5{fill:#1a8d44;}.cls-2{fill:#84c77c;}.cls-3,.cls-7{fill:#42b649;}.cls-4,.cls-5,.cls-6,.cls-7,.cls-8{isolation:isolate;}.cls-5,.cls-6,.cls-7,.cls-8{font-size:113px;font-family:AgencyFB-Reg, Agency FB;}.cls-6,.cls-8{fill:none;stroke-miterlimit:10;}.cls-6{stroke:#1a8d44;}.cls-8{stroke:#42b649;}</style></defs><title>front-logo</title><g id="Logo_On_Banner" data-name="Logo On Banner"><g id="green_try" data-name="green try"><path id="Path_21" data-name="Path 21" class="cls-1" d="M248.26,176.53A33.48,33.48,0,1,0,281.74,210h0A33.48,33.48,0,0,0,248.26,176.53Zm0,52.61a19.12,19.12,0,1,1,13.53-5.6A19.13,19.13,0,0,1,248.26,229.14Z" transform="translate(-95.49 -57.24)"/><path id="Path_22" data-name="Path 22" class="cls-2" d="M238.51,305.19c-44.77-4.44-81-40.65-85.42-85.42a95.48,95.48,0,0,1,21.56-70.86,9.61,9.61,0,0,0-.48-13l-17.23-17.22a128.83,128.83,0,0,0-37.43,101.8c5,62.6,55.67,113.31,118.27,118.25a128.86,128.86,0,0,0,101.8-37.41L322.35,284.1a9.62,9.62,0,0,0-13-.48A95.48,95.48,0,0,1,238.51,305.19Z" transform="translate(-95.49 -57.24)"/><path id="Path_23" data-name="Path 23" class="cls-3" d="M248.26,262.32A52.31,52.31,0,1,0,196,210h0A52.31,52.31,0,0,0,248.26,262.32Zm-43.13-47.83h20a23.68,23.68,0,0,0,18.7,18.7v19.95a43.44,43.44,0,0,1-38.65-38.65Zm43.13-19.14a14.7,14.7,0,0,1,14,10.18h-28A14.69,14.69,0,0,1,248.26,195.35Zm14,19.14a14.66,14.66,0,0,1-27.92,0Zm-9.48,38.65V233.19a23.68,23.68,0,0,0,18.7-18.7h19.95a43.44,43.44,0,0,1-38.65,38.65Zm38.65-47.61h-20a23.68,23.68,0,0,0-18.7-18.7v-20a43.44,43.44,0,0,1,38.65,38.65Zm-47.61-38.65v20a23.68,23.68,0,0,0-18.7,18.7h-20a43.44,43.44,0,0,1,38.65-38.65Z" transform="translate(-95.49 -57.24)"/><path id="Path_24" data-name="Path 24" class="cls-3" d="M396.51,205.53H381.8A133.62,133.62,0,0,0,252.74,76.47V61.74a4.5,4.5,0,0,0-9,0V76.47a133.62,133.62,0,0,0-129,129.06H100a4.5,4.5,0,1,0,0,9h14.73a133.62,133.62,0,0,0,129.06,129v14.71a4.5,4.5,0,0,0,9,0V343.55a133.62,133.62,0,0,0,129-129.06h14.71a4.5,4.5,0,0,0,0-9ZM243.78,85.43v10.2h-.19A114.46,114.46,0,0,0,133.88,205.34v.19h-10.2A124.81,124.81,0,0,1,243.78,85.43ZM123.68,214.49h10.2a114.12,114.12,0,0,0,26.71,69.11,4.47,4.47,0,1,0,6.88-5.72l0,0a105.1,105.1,0,0,1-24.6-63.35h33.67a4.5,4.5,0,0,0,0-9H142.83a105.52,105.52,0,0,1,101-101v33.77a4.5,4.5,0,0,0,9,0V104.59a105.1,105.1,0,0,1,63.35,24.6,4.48,4.48,0,1,0,5.8-6.82l0,0a114.06,114.06,0,0,0-69.11-26.71V85.43a124.81,124.81,0,0,1,120.1,120.1h-10.2A114,114,0,0,0,336,136.42a4.47,4.47,0,0,0-6.85,5.76,105.1,105.1,0,0,1,24.6,63.35H320a4.5,4.5,0,0,0,0,9h33.68a105.5,105.5,0,0,1-101,101V281.76a4.48,4.48,0,1,0-8.95-.42,2.94,2.94,0,0,0,0,.42v33.67a105.13,105.13,0,0,1-63.36-24.6,4.48,4.48,0,0,0-5.76,6.85,114,114,0,0,0,69.12,26.71v10.2A124.81,124.81,0,0,1,123.68,214.49Zm129.06,120.1v-10.2h.19A114.45,114.45,0,0,0,362.64,214.68v-.19h10.2a124.81,124.81,0,0,1-120.1,120.1Z" transform="translate(-95.49 -57.24)"/><g id="Group"><g id="Extreme_" data-name="Extreme " class="cls-4"><text class="cls-5" transform="translate(322.1 147.4)">Extreme</text><text class="cls-6" transform="translate(322.1 147.4)">Extreme</text></g><g id="Rage" class="cls-4"><text class="cls-7" transform="translate(322.1 243.4)">Rage</text><text class="cls-8" transform="translate(322.1 243.4)">Rage</text></g></g></g></g></svg>