<?xml version="1.0" encoding="utf-8"?>
<!-- Generator: Adobe Illustrator 23.1.0, SVG Export Plug-In . SVG Version: 6.00 Build 0)  -->
<svg version="1.1" id="Layer_1" xmlns="http://www.w3.org/2000/svg" xmlns:xlink="http://www.w3.org/1999/xlink" x="0px" y="0px"
	 viewBox="0 0 616.6 305.5" style="enable-background:new 0 0 616.6 305.5;" xml:space="preserve">
<style type="text/css">
	.st0{fill:#1A8D44;}
	.st1{fill:#71F78E;}
	.st2{fill:#00D600;}
	.st3{font-family:'AgencyFB-Reg';}
	.st4{font-size:113px;}
	.st5{enable-background:new    ;}
	.st6{fill:none;stroke:#1A8D44;stroke-miterlimit:10;}
	.st7{fill:#42B649;}
</style>
<title>front-logo</title>
<path id="Path_21" class="st0" d="M152.8,119.3c-18.5,0-33.5,15-33.5,33.5s15,33.5,33.5,33.5c18.5,0,33.5-15,33.5-33.5c0,0,0,0,0,0
	l0,0C186.2,134.3,171.3,119.3,152.8,119.3z M152.8,171.9c-10.6,0-19.1-8.6-19.1-19.1c0-10.6,8.6-19.1,19.1-19.1
	c10.6,0,19.1,8.6,19.1,19.1c0,5.1-2,9.9-5.6,13.5C162.7,169.9,157.8,171.9,152.8,171.9z"/>
<path id="Path_22" class="st1" d="M143,247.9c-44.8-4.4-81-40.6-85.4-85.4C55,137,62.7,111.4,79.2,91.7c3.2-3.8,3-9.5-0.5-13
	L61.5,61.5c-26.8,26.8-40.5,64-37.4,101.8c5,62.6,55.7,113.3,118.3,118.3c37.8,3.1,75-10.6,101.8-37.4l-17.2-17.2
	c-3.6-3.5-9.2-3.7-13-0.5C194.1,242.8,168.6,250.6,143,247.9z"/>
<path id="Path_23" class="st2" d="M152.8,205.1c28.9,0,52.3-23.4,52.4-52.3s-23.4-52.3-52.3-52.4s-52.3,23.4-52.4,52.3c0,0,0,0,0,0
	l0,0C100.5,181.6,123.9,205.1,152.8,205.1z M109.6,157.3h20c1.8,9.5,9.2,16.9,18.7,18.7v19.9C127.9,193.8,111.8,177.6,109.6,157.3
	L109.6,157.3z M152.8,138.1c6.4,0,12,4.1,14,10.2h-28C140.7,142.2,146.4,138.1,152.8,138.1z M166.8,157.3c-2.5,7.7-10.7,12-18.4,9.5
	c-4.5-1.4-8-5-9.5-9.5H166.8z M157.3,195.9v-20c9.5-1.8,16.9-9.2,18.7-18.7h20C193.8,177.6,177.7,193.8,157.3,195.9L157.3,195.9z
	 M195.9,148.3h-20c-1.8-9.5-9.2-16.9-18.7-18.7v-20C177.6,111.7,193.7,127.9,195.9,148.3L195.9,148.3z M148.3,109.6v20
	c-9.5,1.8-16.9,9.2-18.7,18.7h-20C111.8,127.9,127.9,111.8,148.3,109.6L148.3,109.6z"/>
<path id="Path_24" class="st2" d="M301,148.3h-14.7C283.9,78,227.5,21.6,157.3,19.2V4.5c0-2.5-2-4.5-4.5-4.5c-2.5,0-4.5,2-4.5,4.5
	v14.7C78,21.6,21.6,78,19.3,148.3H4.5c-2.5,0-4.5,2-4.5,4.5s2,4.5,4.5,4.5h14.7c2.4,70.3,58.8,126.6,129.1,129V301
	c0,2.5,2,4.5,4.5,4.5c2.5,0,4.5-2,4.5-4.5v-14.7c70.3-2.4,126.6-58.8,129-129.1H301c2.5,0,4.5-2,4.5-4.5S303.5,148.2,301,148.3
	L301,148.3z M148.3,28.2v10.2h-0.2C88.5,40.8,40.8,88.5,38.4,148.1v0.2H28.2C30.6,83,83,30.6,148.3,28.2z M28.2,157.3h10.2
	c1,25.4,10.4,49.7,26.7,69.1c1.6,1.9,4.4,2.2,6.3,0.6c1.9-1.6,2.2-4.4,0.6-6.3l0,0c-15-17.8-23.6-40.1-24.6-63.4H81
	c2.5,0,4.5-2,4.5-4.5s-2-4.5-4.5-4.5H47.3c2.3-54.8,46.2-98.7,101-101v33.8c0,2.5,2,4.5,4.5,4.5c2.5,0,4.5-2,4.5-4.5V47.3
	c23.3,1,45.5,9.6,63.4,24.6c1.8,1.7,4.7,1.6,6.3-0.3c1.7-1.8,1.6-4.7-0.3-6.3c-0.1-0.1-0.2-0.2-0.3-0.2l0,0
	c-19.4-16.3-43.7-25.7-69.1-26.7V28.2c65.3,2.4,117.7,54.8,120.1,120.1h-10.2c-1-25.4-10.4-49.7-26.8-69.1c-1.6-1.9-4.4-2.1-6.3-0.5
	c-1.9,1.6-2.1,4.4-0.5,6.3c15,17.8,23.6,40.1,24.6,63.4h-33.8c-2.5,0-4.5,2-4.5,4.5s2,4.5,4.5,4.5h33.7c-2.3,54.8-46.2,98.7-101,101
	v-33.8c0.1-2.5-1.8-4.6-4.2-4.7s-4.6,1.8-4.7,4.2c0,0,0,0,0,0.1c0,0.1,0,0.3,0,0.4v33.7c-23.3-1-45.5-9.6-63.4-24.6
	c-2-1.5-4.8-1.1-6.3,0.8c-1.4,1.8-1.2,4.4,0.5,6c19.4,16.4,43.7,25.8,69.1,26.7v10.2C83,274.9,30.6,222.5,28.2,157.3z M157.3,277.4
	v-10.2h0.2c59.6-2.4,107.3-50.1,109.7-109.7v-0.2h10.2C274.9,222.6,222.6,274.9,157.3,277.4L157.3,277.4z"/>
<text transform="matrix(1 0 0 1 322.1 147.4)" class="st0 st3 st4">Extreme</text>
<g class="st5">
	<path class="st6" d="M357.4,147.4H329V61.1h28v6.8h-20.4v32.2h18.5v6.9h-18.5v33.7h20.7V147.4z"/>
	<path class="st6" d="M397.6,147.4h-7.4l-9-21.2l-9.2,21.2h-7.2v-0.2l12.5-27.4l-11.8-26.1h7.4l8.3,19.7l8.5-19.7h7.1v0.2
		l-11.8,25.7L397.6,147.4z"/>
	<path class="st6" d="M425.2,147.4h-10.4c-4.1,0-6.2-2.1-6.2-6.2v-41h-6.5v-6.5h6.5V77h7.2v16.7h9.4v6.5h-9.4v40.8h9.4V147.4z"/>
	<path class="st6" d="M462.6,111.4h-7.2v-11.1l-13.5,0.4v46.7h-7.3V93.7h7.3v1.5c2.4-0.4,4.9-0.8,7.3-1.2c2.9-0.4,5.4-0.7,7.3-0.7
		c4,0,6.1,2,6.1,6V111.4z"/>
	<path class="st6" d="M502,141.2c0,4.2-2.1,6.2-6.2,6.2h-17.7c-4.1,0-6.2-2.1-6.2-6.2V99.9c0-4.2,2.1-6.2,6.2-6.2h17.7
		c4.1,0,6.2,2.1,6.2,6.2v19.3l-2.5,2.6h-20.4v19.4h15.8v-9.8h7.1V141.2z M494.9,116V99.8h-15.8V116H494.9z"/>
	<path class="st6" d="M568.1,147.4h-7.3v-47.1l-16,0.4v46.7h-7.3v-47.1l-16,0.4v46.7h-7.3V93.7h7.3v1.5c2.9-0.4,5.7-0.8,8.6-1.2
		c3.5-0.4,6.4-0.7,8.7-0.7c2.2,0,3.9,0.7,5,2c3.1-0.4,6.2-0.8,9.2-1.3c4-0.5,7-0.8,9.1-0.8c4,0,6.1,2,6.1,6V147.4z"/>
	<path class="st6" d="M610,141.2c0,4.2-2.1,6.2-6.2,6.2h-17.7c-4.1,0-6.2-2.1-6.2-6.2V99.9c0-4.2,2.1-6.2,6.2-6.2h17.7
		c4.1,0,6.2,2.1,6.2,6.2v19.3l-2.5,2.6h-20.4v19.4h15.8v-9.8h7.1V141.2z M602.9,116V99.8h-15.8V116H602.9z"/>
</g>
<text transform="matrix(1 0 0 1 322.1 243.4)" class="st7 st3 st4">Rage</text>
<g>
	<path class="st2" d="M365.7,243.4h-8.1l-16.1-46.2l1-1.5h13.7v-31.8h-19.7v79.6H329v-86.3h28.9c1.8,0,3.3,0.6,4.4,1.7
		c1.1,1.1,1.7,2.6,1.7,4.4v32.8c0,4.2-2.8,6.2-8.4,6.2c-0.6,0-1.4,0-2.4-0.1c-1.1-0.1-1.8-0.1-2.3-0.1
		C355.9,215.8,360.8,229.6,365.7,243.4z"/>
	<path class="st2" d="M406.7,243.4h-7.2v-1.5c-2.9,0.4-5.8,0.8-8.7,1.2c-3.6,0.4-6.5,0.7-8.7,0.7c-4,0-6-2-6-6v-19.6
		c0-4.1,2.1-6.2,6.2-6.2h17.3v-16.2h-15.8v9.2h-7.1v-9c0-4.2,2.1-6.2,6.2-6.2h17.7c4.1,0,6.2,2.1,6.2,6.2V243.4z M399.6,236.7v-19
		h-16.4v19.3L399.6,236.7z"/>
	<path class="st2" d="M449.2,257.5c0,4.2-2.1,6.2-6.2,6.2h-17.4c-4.2,0-6.3-2.6-6.3-7.9c0-0.6,0-1.6,0.1-2.8
		c0.1-1.2,0.1-2.1,0.1-2.7h7.2v7.1h15.3v-14.1h-12.1c-3.3,0-6-1.1-8.2-3.3c-2.2-2.2-3.3-4.9-3.3-8.2v-31.4c0-3.2,1-5.8,2.9-7.9
		c1.9-2.1,4.4-3.2,7.6-3.2c0.8,0,5.2,0.6,13.1,1.8v-1.5h7.3V257.5z M441.9,236.9v-40.6c-5.8-0.4-9.2-0.6-10.2-0.6
		c-4,0-6.1,2.1-6.1,6.2v28.7c0,4.1,2,6.2,6.1,6.2H441.9z"/>
	<path class="st2" d="M491.3,237.2c0,4.2-2.1,6.2-6.2,6.2h-17.7c-4.1,0-6.2-2.1-6.2-6.2v-41.2c0-4.2,2.1-6.2,6.2-6.2h17.7
		c4.1,0,6.2,2.1,6.2,6.2v19.3l-2.5,2.6h-20.4v19.4h15.8v-9.8h7.1V237.2z M484.2,212v-16.2h-15.8V212H484.2z"/>
</g>
</svg>
