<svg id="Layer_1" data-name="Layer 1" xmlns="http://www.w3.org/2000/svg" viewBox="0 0 526.88 162.46"><defs><style>.cls-1{fill:#1a8d44;}.cls-2{fill:#84c77c;}.cls-3,.cls-5{fill:#42b649;}.cls-4,.cls-5{isolation:isolate;}.cls-5{font-size:149.3px;font-family:AgencyFB-Reg, Agency FB;}</style></defs><title>nav-logo</title><g id="green"><path id="Path_13" data-name="Path 13" class="cls-1" d="M155.83,197.61a15,15,0,1,0,15,15h0A15,15,0,0,0,155.83,197.61Zm0,23.57a8.57,8.57,0,1,1,8.55-8.59v0A8.56,8.56,0,0,1,155.83,221.18Z" transform="translate(-82.78 -139.58)"/><path id="Path_14" data-name="Path 14" class="cls-2" d="M151.13,258.08a45.72,45.72,0,0,1-30.52-74.69,4.59,4.59,0,0,0-.23-6.21L112.15,169a61.73,61.73,0,1,0,87.06,87.53l.24-.23L191.21,248a4.59,4.59,0,0,0-6.21-.23,45.65,45.65,0,0,1-33.87,10.3Z" transform="translate(-82.78 -139.58)"/><path id="Path_15" data-name="Path 15" class="cls-3" d="M155.79,237.59a25,25,0,1,0-25-25h0A25,25,0,0,0,155.79,237.59Zm-20.6-22.85h9.54a11.29,11.29,0,0,0,8.93,8.93v9.54A20.77,20.77,0,0,1,135.19,214.74Zm20.61-9.15a7,7,0,0,1,6.67,4.87H149.12a7,7,0,0,1,6.67-4.87Zm6.67,9.15a7,7,0,0,1-13.34,0Zm-4.53,18.47v-9.54a11.32,11.32,0,0,0,8.94-8.93h9.53a20.77,20.77,0,0,1-18.48,18.47Zm18.47-22.75h-9.53a11.32,11.32,0,0,0-8.94-8.94V192a20.76,20.76,0,0,1,18.46,18.47ZM153.66,192v9.54a11.3,11.3,0,0,0-8.93,8.94h-9.54A20.76,20.76,0,0,1,153.65,192Z" transform="translate(-82.78 -139.58)"/><path id="Path_16" data-name="Path 16" class="cls-3" d="M226.66,210.45h-7a63.84,63.84,0,0,0-61.69-61.67v-7.06a2.14,2.14,0,1,0-4.28,0h0v7.06A63.84,63.84,0,0,0,92,210.45H84.92a2.14,2.14,0,0,0,0,4.28H92a63.84,63.84,0,0,0,61.67,61.69v7a2.14,2.14,0,1,0,4.28,0h0v-7a63.85,63.85,0,0,0,61.69-61.69h7a2.14,2.14,0,0,0,0-4.28Zm-73-57.4v4.87h-.09a54.68,54.68,0,0,0-52.43,52.44v.09H96.25A59.68,59.68,0,0,1,153.65,153.05Zm-57.4,61.68h4.88a54.47,54.47,0,0,0,12.77,33,2.14,2.14,0,0,0,3.27-2.76,50.25,50.25,0,0,1-11.75-30.28H121.5a2.14,2.14,0,0,0,0-4.28H105.4a50.44,50.44,0,0,1,48.25-48.25v16.1a2.14,2.14,0,1,0,4.28,0V162.2A50.25,50.25,0,0,1,188.21,174,2.14,2.14,0,1,0,191,170.7l0,0a54.47,54.47,0,0,0-33-12.77v-4.86a59.67,59.67,0,0,1,57.41,57.41h-4.86a54.56,54.56,0,0,0-12.77-33,2.14,2.14,0,0,0-3.39,2.61.81.81,0,0,0,.12.14,50.23,50.23,0,0,1,11.74,30.29h-16.1a2.14,2.14,0,1,0,0,4.28h16.1A50.41,50.41,0,0,1,157.93,263v-16.1a2.14,2.14,0,1,0-4.28,0h0V263a50.18,50.18,0,0,1-30.28-11.75,2.14,2.14,0,0,0-2.75,3.28,54.53,54.53,0,0,0,33,12.77v4.87A59.66,59.66,0,0,1,96.25,214.73Zm61.68,57.41v-4.86H158a54.72,54.72,0,0,0,52.46-52.46v-.09h4.87A59.65,59.65,0,0,1,157.93,272.14Z" transform="translate(-82.78 -139.58)"/></g><g id="ER_Park" data-name="ER Park" class="cls-4"><text class="cls-5" transform="translate(163.99 132.57)">ER Park</text></g></svg>