<svg id="Layer_1" data-name="Layer 1" xmlns="http://www.w3.org/2000/svg" viewBox="0 0 403.84 403.84"><defs><style>.cls-1{fill:#42b649;}</style></defs><title>paintball-icon1</title><g id="Group_23" data-name="Group 23"><path id="Path_38" data-name="Path 38" class="cls-1" d="M402.66,216.59H370.09v-6.51a19.57,19.57,0,0,0-19.54-19.54h-7.82a162.77,162.77,0,1,0-161.54,143.3c.49,0,1,0,1.44,0L175.53,380a16.5,16.5,0,0,0,13.82,18.83,16.1,16.1,0,0,0,2.5.19H210a16.53,16.53,0,0,0,10.89-4.09l1.81-1.59a16.54,16.54,0,0,0,5.48-10.09L239,307.78h13.89v19.58a32.61,32.61,0,0,0,32.57,32.57H318v19.5A32.62,32.62,0,0,0,350.55,412H376.6a32.61,32.61,0,0,0,32.57-32.57v-98.9a19.5,19.5,0,0,0,13-18.34V236.14A19.57,19.57,0,0,0,402.66,216.59Zm-45.6-6.51v6.51H344v-13h6.52A6.51,6.51,0,0,1,357.06,210.08ZM135.6,255.67H83.49v-13H135.6Zm1.2-26H87.32a109.93,109.93,0,0,1-16.61-52.11H123a58.59,58.59,0,0,0,24,41A19.58,19.58,0,0,0,136.8,229.62Zm102.63-65.13a58.7,58.7,0,0,0-51.72-51.73V60.6A110.69,110.69,0,0,1,291.59,164.49Zm-51.72,51.58V177.51h38.56a45.61,45.61,0,0,1-38.56,38.56Zm0-51.58V125.92a45.62,45.62,0,0,1,38.56,38.57Zm-13,0H136.12a45.62,45.62,0,0,1,38.56-38.57Zm0,13v38.57a45.63,45.63,0,0,1-38.56-38.57Zm64.75,0h52.14a111.82,111.82,0,0,1-1.53,13H272.38a19.57,19.57,0,0,0-19.54,19.54v6.51H218a58.53,58.53,0,0,0,21.47-39.08Zm26.44,32.57a6.51,6.51,0,0,1,6.51-6.51h6.52v13h-13Zm26.05-6.51h13v13h-13Zm26.06,0h13v13H318Zm-14.59-13a123.49,123.49,0,0,0,1.38-13h26q-.28,6.57-1.12,13Zm27.44-26H304.62A123.72,123.72,0,0,0,187.7,47.58V21.35A150,150,0,0,1,330.83,164.49ZM174.68,21.35V47.5A124.31,124.31,0,0,0,62.27,136.63l12.52,3.61a111.21,111.21,0,0,1,99.89-79.7v52.22A58.7,58.7,0,0,0,123,164.49H70.73a111.45,111.45,0,0,1,1.26-12l-12.85-2.16a126,126,0,0,0-1.43,14.12H31.55A150,150,0,0,1,174.68,21.35Zm6.51,299.46A150,150,0,0,1,31.55,177.51H57.68a122.93,122.93,0,0,0,14.58,52.11h-1.8V268.7H136.8a19.51,19.51,0,0,0,18.34,13h6.51v6.51a19.57,19.57,0,0,0,19.54,19.54h5.43l-2,12.93C183.49,320.74,182.35,320.81,181.19,320.81Zm34.09,60.54a3.45,3.45,0,0,1-1.16,2.13l-1.81,1.59a3.48,3.48,0,0,1-2.3.87H191.85a3.48,3.48,0,0,1-3.49-3.46,3.31,3.31,0,0,1,0-.55l11.4-74.15h26Zm70.13-34.45a19.57,19.57,0,0,1-19.54-19.54V307.78h26.05v0a19.54,19.54,0,0,1-14.65,18.92l3.24,12.62a32.55,32.55,0,0,0,24.43-31.54v0h13V346.9Zm123.76-84.72a6.53,6.53,0,0,1-6.52,6.52H383.11v13h13v97.7A19.55,19.55,0,0,1,376.6,399H350.55A19.56,19.56,0,0,1,331,379.43V294.76H181.19a6.53,6.53,0,0,1-6.51-6.52v-6.51H370.09v-13H155.14a6.5,6.5,0,0,1-6.51-6.51V236.14a6.51,6.51,0,0,1,6.51-6.52H402.66a6.52,6.52,0,0,1,6.51,6.52Z" transform="translate(-18.36 -8.16)"/><path id="Path_39" data-name="Path 39" class="cls-1" d="M363.57,346.86a19.54,19.54,0,1,0,19.54,19.54h0A19.57,19.57,0,0,0,363.57,346.86Zm0,26.06a6.52,6.52,0,1,1,6.51-6.51h0A6.51,6.51,0,0,1,363.57,372.92Z" transform="translate(-18.36 -8.16)"/></g></svg>