<svg id="Layer_1" data-name="Layer 1" xmlns="http://www.w3.org/2000/svg" viewBox="0 0 381.88 366.11"><defs><style>.cls-1{fill:#42b649;}</style></defs><title>paintball-icon2</title><g id="Group_2" data-name="Group 2"><g id="Group_1" data-name="Group 1"><path id="Path_25" data-name="Path 25" class="cls-1" d="M28.75,196.3H47.39a3.69,3.69,0,0,1,3.67,3.37h93.57A20.91,20.91,0,0,0,129.38,215l-1-1.82h-1a5.6,5.6,0,0,0,1.39,7.61,21,21,0,0,0,2.91,9.88,14.43,14.43,0,0,1-14-14.82,14.77,14.77,0,0,1,.33-2.66H51.06a3.69,3.69,0,0,1-3.67,3.36H28.75a3.7,3.7,0,0,1-3.71-3.7V200a3.71,3.71,0,0,1,3.7-3.71Z" transform="translate(-25.04 -27.12)"/></g></g><g id="Group_4" data-name="Group 4"><g id="Group_3" data-name="Group 3"><path id="Path_26" data-name="Path 26" class="cls-1" d="M132,163.55h42.59a11.06,11.06,0,0,1,6.41,2,35.49,35.49,0,0,0-1.49,23.29,11,11,0,0,1-4.92,1.16H160v9.62h24.5a35.48,35.48,0,0,0,16.79,13.12l-3.47,6.1-39.42-18a20.91,20.91,0,0,0-11.88-1.63v-9.24H132A11.06,11.06,0,0,1,120.89,179h0v-4.38A11.06,11.06,0,0,1,132,163.55Z" transform="translate(-25.04 -27.12)"/></g></g><g id="Group_6" data-name="Group 6"><g id="Group_5" data-name="Group 5"><path id="Path_27" data-name="Path 27" class="cls-1" d="M172.36,253.3a23.49,23.49,0,0,0,2.76,5.65,5.07,5.07,0,0,1-4,1.93H158.5a5.05,5.05,0,0,1-4.39-2.55l-10.28-18Z" transform="translate(-25.04 -27.12)"/></g></g><g id="Group_8" data-name="Group 8"><g id="Group_7" data-name="Group 7"><path id="Path_28" data-name="Path 28" class="cls-1" d="M209.77,152.77a26.95,26.95,0,1,1-22.56,30.71A27,27,0,0,1,209.77,152.77Z" transform="translate(-25.04 -27.12)"/></g></g><g id="Group_10" data-name="Group 10"><g id="Group_9" data-name="Group 9"><path id="Path_29" data-name="Path 29" class="cls-1" d="M138.85,214.38A12.44,12.44,0,0,1,155.08,209l44.22,20.15,9.43-5.29,25.24-15a35.78,35.78,0,0,0,11.74-13.46l3.52,0a20.46,20.46,0,0,1,20.59,20.31v.19c-.11,41.49-.11,60.43-.09,69.06a56.4,56.4,0,0,1-1.82,14.4L255.55,346.8h37.39c-1,30.3-.92,28.25-.9,29.3h-55a14.67,14.67,0,0,1-14.66-14.66,14.39,14.39,0,0,1,.39-3.34l12.32-52.51-40.31-4L204,359.15a14.65,14.65,0,0,1-12.16,16.77l-.54.07A14.88,14.88,0,0,1,175,363.4l-12.07-76a14.66,14.66,0,0,1,12.18-16.77,15.1,15.1,0,0,1,3.74-.11l31.82,3.16-.11-9.82c1-.8-1.35,1.4,32.41-31.21l-37.18,20.84a12.25,12.25,0,0,1-10.94.41l-50.17-22.87a12.2,12.2,0,0,1-6-16.17Z" transform="translate(-25.04 -27.12)"/></g></g><g id="Group_12" data-name="Group 12"><g id="Group_11" data-name="Group 11"><path id="Path_30" data-name="Path 30" class="cls-1" d="M291.66,167.91a6.19,6.19,0,0,1-3.43.87l-15.6-.68a6.25,6.25,0,0,1-5.29-3.4l-7.84-15.27Z" transform="translate(-25.04 -27.12)"/></g></g><g id="Group_14" data-name="Group 14"><g id="Group_13" data-name="Group 13"><path id="Path_31" data-name="Path 31" class="cls-1" d="M111.15,85.68a4.59,4.59,0,0,1,4.57-4.38h.2l23,1a4.59,4.59,0,0,1,4.37,4.36l88.93,3.91a24.8,24.8,0,0,0-12,16.14l-77.67-3.41a4.59,4.59,0,0,1-4.53,4h-.21l-23-1a4.58,4.58,0,0,1-4.38-4.78h0Z" transform="translate(-25.04 -27.12)"/></g></g><g id="Group_16" data-name="Group 16"><g id="Group_15" data-name="Group 15"><path id="Path_32" data-name="Path 32" class="cls-1" d="M230.75,62.23a16.37,16.37,0,0,1,16.34-15.66l.73,0L295,48.66a16.63,16.63,0,0,1,4.26.75,42.42,42.42,0,0,0,3.93,29.36,16.28,16.28,0,0,1-9.62,2.61l-15.27-.67-.52,11.88,49.46,2.17a6.25,6.25,0,0,1,6,6.52,6.11,6.11,0,0,1-.95,3l-8.85,14.08-11,4.18L261.13,91.85,261.65,80l-15.26-.67A16.36,16.36,0,0,1,230.75,62.23Z" transform="translate(-25.04 -27.12)"/></g></g><g id="Group_18" data-name="Group 18"><g id="Group_17" data-name="Group 17"><path id="Path_33" data-name="Path 33" class="cls-1" d="M232.2,105.13a14.14,14.14,0,0,1,19.29-5.22h0l57.42,33,31-20.76-.15.06c1.63-2.6,3.45-5.07,3.91-9.49,11.06-.57,2.89.07,16.09-.71a25,25,0,0,1,26.5,23.51c8.58,143.89,5.19,76.53,9.72,178.29l10.74,69a17.66,17.66,0,1,1-34.91,5.43l-10.89-70a17.76,17.76,0,0,1-.19-1.93c-.36-8.21-2.91-65.43-3.22-72.37l-3.72.23-13.29,69.21-2.33,72.71A17.67,17.67,0,0,1,302.84,375h0l2.38-74.11a17.15,17.15,0,0,1,.31-2.77l12.72-66.26c-.33-5.58-3-50.29-3.38-56.68a18,18,0,0,0,8.41-5l32.35-34.52-38.29,25.65a14.14,14.14,0,0,1-14.91.51l-65-37.37A14.12,14.12,0,0,1,232.2,105.13Z" transform="translate(-25.04 -27.12)"/></g></g><g id="Group_20" data-name="Group 20"><g id="Group_19" data-name="Group 19"><path id="Path_34" data-name="Path 34" class="cls-1" d="M309,55.13h0a31.78,31.78,0,0,1,63.12,7.42,31.42,31.42,0,0,1-10.53,20.11A31.77,31.77,0,0,1,309,55.13Z" transform="translate(-25.04 -27.12)"/></g></g></svg>