<svg id="Layer_1" data-name="Layer 1" xmlns="http://www.w3.org/2000/svg" viewBox="0 0 397.19 355.31"><defs><style>.cls-1{fill:#42b649;}</style></defs><title>people-icon3</title><g id="Group_42" data-name="Group 42"><path id="Path_87" data-name="Path 87" class="cls-1" d="M420.18,174.73A23.3,23.3,0,0,0,396.9,198v3.88a66,66,0,0,1-54.71,65,37.23,37.23,0,0,0,6.43-20.94v-5.39a37.4,37.4,0,0,0-74.8,0v5.39A37.2,37.2,0,0,0,280,266.38a66,66,0,0,1-52.26-64.5V198a23.28,23.28,0,0,0-46.55,0v3.88a111.56,111.56,0,0,0,9.39,45H137.74V168.79a7.78,7.78,0,0,0-5.62-7.46A97.41,97.41,0,0,1,61.77,68.09V64.2a7.76,7.76,0,1,1,15.51,0v3.89a81.55,81.55,0,0,0,81.46,81.45h37.33a81.55,81.55,0,0,0,81.46-81.45V64.2a7.76,7.76,0,1,1,15.52,0h0v3.89a96.42,96.42,0,0,1-6.39,34.62,7.76,7.76,0,0,0,14.41,5.75l.08-.2a111.67,111.67,0,0,0,7.41-40.17V64.2a23.27,23.27,0,1,0-46.54,0v3.89a66,66,0,0,1-54.72,65,37.19,37.19,0,0,0,6.42-20.94v-5.38a37.4,37.4,0,1,0-74.79,0v5.38a37.11,37.11,0,0,0,6.12,20.47A66,66,0,0,1,92.8,68.09V64.2a23.28,23.28,0,0,0-46.55,0v3.89a111.36,111.36,0,0,0,23.16,68.29,113.68,113.68,0,0,0,52.81,38.1v80.19a7.76,7.76,0,0,0,7.76,7.76h1.42v126a7.76,7.76,0,0,0,15.51,0h0v-126h52q2.53,3.94,5.43,7.73c.51.67,1.05,1.32,1.58,2V388.47a7.76,7.76,0,1,0,15.51,0V288a113.58,113.58,0,0,0,35.73,20.27v80.2a7.76,7.76,0,1,0,15.51,0V302.59a7.76,7.76,0,0,0-5.62-7.46,97.41,97.41,0,0,1-70.34-93.25V198a7.76,7.76,0,0,1,15.51,0v3.88a81.55,81.55,0,0,0,81.46,81.46H331a81.55,81.55,0,0,0,81.46-81.46V198a7.76,7.76,0,0,1,15.52,0v3.88a97.13,97.13,0,0,1-72,93.71,7.75,7.75,0,0,0-5.75,7.49v56.17a7.76,7.76,0,0,0,15.51,0V308.87a112.67,112.67,0,0,0,77.73-107V198A23.28,23.28,0,0,0,420.18,174.73Zm-265.74-68a21.88,21.88,0,0,1,43.76-.4,2.67,2.67,0,0,1,0,.4v5.39a21.88,21.88,0,0,1-43.76,0ZM333.09,245.91a21.88,21.88,0,0,1-43.76,0v-5.39a21.88,21.88,0,0,1,43.76,0Z" transform="translate(-46.25 -40.93)"/></g></svg>