<svg id="Layer_1" data-name="Layer 1" xmlns="http://www.w3.org/2000/svg" viewBox="0 0 354.12 372.34"><defs><style>.cls-1{fill:#42b649;}</style></defs><title>people-icon1</title><g id="together"><g id="Group_33" data-name="Group 33"><g id="Group_32" data-name="Group 32"><path id="Path_82" data-name="Path 82" class="cls-1" d="M308,61a31,31,0,1,0,31,31h0A31,31,0,0,0,308,61Zm0,49.6A18.6,18.6,0,1,1,326.56,92a18.59,18.59,0,0,1-18.6,18.6Z" transform="translate(-44.12 -23.83)"/></g></g><g id="Group_35" data-name="Group 35"><g id="Group_34" data-name="Group 34"><path id="Path_83" data-name="Path 83" class="cls-1" d="M373.16,159.37a6.23,6.23,0,0,0,2.89-4.1L397.87,46.08a18.59,18.59,0,0,0-36.27-8.16L340,124.44l-32,10.67-32-10.67L254.31,37.92a18.6,18.6,0,0,0-32.43-7.27c-.29.35-.48.76-.74,1.14-.27-.38-.45-.78-.74-1.14A18.61,18.61,0,0,0,188,37.93l-21.62,86.51-32,10.67-32-10.67L80.68,37.92a18.61,18.61,0,0,0-36.27,8.16L66.23,155.29a6.26,6.26,0,0,0,2.89,4.1l28,16.78v45.42L65,366.21a24.4,24.4,0,0,0,47.52,11.11l.09-.41,21.74-95.66L156,376.91a24.4,24.4,0,0,0,47.7-10.29l-.09-.41L171.53,221.59V176.17l28-16.8a6.26,6.26,0,0,0,2.89-4.1l18.73-93.61,18.72,93.63a6.23,6.23,0,0,0,2.89,4.1l28,16.78v45.42L238.61,366.21a24.4,24.4,0,0,0,47.52,11.11l.09-.41L308,281.25l21.74,95.66a24.4,24.4,0,0,0,47.7-10.29l-.09-.41L345.17,221.59V176.17ZM212.09,43.64l-21.3,106.5-28.65,17.2a6.2,6.2,0,0,0-3,5.32v49.6a6.72,6.72,0,0,0,.14,1.35L191.56,368.9a12,12,0,0,1-23.34,5.51l-.06-.25L140.37,251.89a6.21,6.21,0,0,0-12.1,0L100.49,374.16a12,12,0,0,1-23.46-5l.06-.25,32.28-145.29a5.54,5.54,0,0,0,.16-1.35v-49.6a6.22,6.22,0,0,0-3-5.32l-28.66-17.2L56.55,43.67A6.21,6.21,0,0,1,68.64,41L91.1,130.78a6.18,6.18,0,0,0,4.05,4.38l37.21,12.4a6.15,6.15,0,0,0,3.93,0l37.2-12.4a6.2,6.2,0,0,0,4-4.38L200,40.93a6.21,6.21,0,0,1,12.09,2.72Zm120.81,180L365.18,368.9a12,12,0,0,1-23.4,5.26L314,251.89a6.21,6.21,0,0,0-12.09,0L274.13,374.15a12,12,0,1,1-23.46-5,2.38,2.38,0,0,1,.05-.26L283,223.61a6.73,6.73,0,0,0,.16-1.35v-49.6a6.24,6.24,0,0,0-3-5.32l-28.66-17.2L230.19,43.67A6.21,6.21,0,0,1,242.28,41l22.46,89.79a6.19,6.19,0,0,0,4.05,4.37L306,147.53a6.26,6.26,0,0,0,3.92,0l37.2-12.41a6.18,6.18,0,0,0,4.06-4.37l22.46-89.83a6.21,6.21,0,0,1,12.1,2.72l-21.32,106.5-28.66,17.2a6.22,6.22,0,0,0-3,5.32v49.6a6.07,6.07,0,0,0,.15,1.35Z" transform="translate(-44.12 -23.83)"/></g></g><g id="Group_37" data-name="Group 37"><g id="Group_36" data-name="Group 36"><path id="Path_84" data-name="Path 84" class="cls-1" d="M134.33,61a31,31,0,1,0,31,31,31,31,0,0,0-31-31Zm0,49.6A18.6,18.6,0,1,1,152.93,92h0A18.6,18.6,0,0,1,134.33,110.64Z" transform="translate(-44.12 -23.83)"/></g></g></g></svg>