<svg id="Layer_1" data-name="Layer 1" xmlns="http://www.w3.org/2000/svg" viewBox="0 0 398.13 335.42"><defs><style>.cls-1{fill:#42b649;}</style></defs><title>people-icon2</title><path class="cls-1" d="M130.8,113.24A32.73,32.73,0,1,0,98.07,80.51h0A32.74,32.74,0,0,0,130.8,113.24Z" transform="translate(-41.76 -47.79)"/><path class="cls-1" d="M218.58,77.86,200.94,102l-44.42,17.72c-.24,0-.45-.15-.7-.15,0,0-51.35.31-52,.4a13.87,13.87,0,0,0-14,8L43.1,230.15a14,14,0,0,0,25.33,11.93l.14-.3,22.55-49.4V245.7c0,.06,0,120.9,0,120.9a16.8,16.8,0,0,0,33.59,0V266.49h12.24v100.1a16.8,16.8,0,0,0,33.59,0l-.05-222.34L215,126.47a14,14,0,0,0,6.11-4.74l12.77-17.46L223.09,89.48A24.82,24.82,0,0,1,218.58,77.86Z" transform="translate(-41.76 -47.79)"/><path class="cls-1" d="M350.93,113.24A32.73,32.73,0,1,0,318.2,80.52a32.72,32.72,0,0,0,32.73,32.72Z" transform="translate(-41.76 -47.79)"/><path class="cls-1" d="M438.63,230.15,392,127.91a13.88,13.88,0,0,0-14-8c-.67-.09-52.47-.27-52.72-.25L280.8,102,254.74,66.35a14,14,0,1,0-22.59,16.52l28.42,38.86a13.88,13.88,0,0,0,6.12,4.74l44.57,17.78c0,20.17,0,198.21-.05,222.34a16.8,16.8,0,0,0,33.6,0V266.49h12.24v100.1a16.8,16.8,0,0,0,33.59,0l0-174.21,22.55,49.4a14,14,0,1,0,25.46-11.63Z" transform="translate(-41.76 -47.79)"/></svg>