<svg id="Layer_1" data-name="Layer 1" xmlns="http://www.w3.org/2000/svg" viewBox="0 0 299.76 383.08"><defs><style>.cls-1{fill:#42b649;}</style></defs><title>ribbon-icon</title><g id="medal"><g id="Group_25" data-name="Group 25"><g id="Group_24" data-name="Group 24"><path id="Path_40" data-name="Path 40" class="cls-1" d="M625.45,325.15a47.58,47.58,0,0,1-53.9,8.07A49,49,0,0,1,555,320.35l-25,55.17a4.8,4.8,0,0,0,5.66,6.6l18.16-5.05a23.13,23.13,0,0,1,27,12.24l8.21,17a4.79,4.79,0,0,0,8.68-.11l39.68-87.78A29.75,29.75,0,0,0,625.45,325.15Z" transform="translate(-497.32 -25.92)"/></g></g><g id="Group_27" data-name="Group 27"><g id="Group_26" data-name="Group 26"><path id="Path_41" data-name="Path 41" class="cls-1" d="M764.39,375.52l-24.95-55.17a49.06,49.06,0,0,1-16.59,12.87,47.59,47.59,0,0,1-53.91-8.07,29.68,29.68,0,0,0-12-6.75l39.68,87.76a4.79,4.79,0,0,0,8.69.11l8.2-17a23.13,23.13,0,0,1,27-12.24l18.17,5.06a4.8,4.8,0,0,0,5.65-6.6Z" transform="translate(-497.32 -25.92)"/></g></g><g id="Group_29" data-name="Group 29"><g id="Group_28" data-name="Group 28"><path id="Path_42" data-name="Path 42" class="cls-1" d="M784,181.38a48.7,48.7,0,0,1-14.63-64.12,30.1,30.1,0,0,0-34.9-43.76A48.7,48.7,0,0,1,675.19,45a30.09,30.09,0,0,0-56,0A48.7,48.7,0,0,1,560,73.5a30.09,30.09,0,0,0-34.9,43.76,48.69,48.69,0,0,1-14.64,64.12A30.09,30.09,0,0,0,522.87,236a48.68,48.68,0,0,1,41,51.42,30.1,30.1,0,0,0,50.44,24.29,48.68,48.68,0,0,1,65.77,0,30.1,30.1,0,0,0,50.44-24.29,48.69,48.69,0,0,1,41-51.42A30.09,30.09,0,0,0,784,181.38ZM647.2,277.25a98.48,98.48,0,1,1,98.48-98.48,98.47,98.47,0,0,1-98.48,98.48Z" transform="translate(-497.32 -25.92)"/></g></g><g id="Group_31" data-name="Group 31"><g id="Group_30" data-name="Group 30"><path id="Path_43" data-name="Path 43" class="cls-1" d="M647.2,98.66a80.12,80.12,0,1,0,80.11,80.11h0A80.2,80.2,0,0,0,647.2,98.66ZM688.26,171l-49.87,36.42a9.17,9.17,0,0,1-12.82-2l-.1-.14-14.92-21.24a9.18,9.18,0,0,1,14.92-10.7l.11.15,9.54,13.58,42.31-30.9A9.18,9.18,0,0,1,688.26,171Z" transform="translate(-497.32 -25.92)"/></g></g></g></svg>