<svg id="Layer_1" data-name="Layer 1" xmlns="http://www.w3.org/2000/svg" viewBox="0 0 371.27 371.27"><defs><style>.cls-1{fill:#42b649;}</style></defs><title>vip-icon</title><path id="Path_98" data-name="Path 98" class="cls-1" d="M339.91,137.91V24.36H80V137.91L24.33,162.66v233H395.6v-233Zm0,13.55,37.65,16.7L339.91,198ZM92.39,36.74H327.53V207.86l-12.37,9.81V73.86H309A18.57,18.57,0,0,1,290.4,55.29h0V49.11H129.52V55.3A18.56,18.56,0,0,1,111,73.86h-6.19V217.67l-12.38-9.81ZM302.78,227.49,221.5,292a18.52,18.52,0,0,1-23.08,0l-81.26-64.46V85.62a31,31,0,0,0,24.12-24.13H278.65a31,31,0,0,0,24.13,24.13ZM80,151.46v46.59L42.36,168.19Zm-43.32,28,122.76,97.35L36.7,376.65ZM48.27,383.26l121.11-98.54,21.35,16.93a30.79,30.79,0,0,0,38.44,0l21.35-16.93,121.12,98.54Zm335-49.49v42.89L260.47,276.84l122.76-97.36Z" transform="translate(-24.33 -24.36)"/><path id="Path_99" data-name="Path 99" class="cls-1" d="M203.78,80.05h12.37v61.88H203.78Z" transform="translate(-24.33 -24.36)"/><path id="Path_100" data-name="Path 100" class="cls-1" d="M247.09,80.05H228.53v61.88H240.9V123.37h6.19a18.56,18.56,0,0,0,18.57-18.57V98.62A18.56,18.56,0,0,0,247.09,80.05Zm6.19,24.76a6.19,6.19,0,0,1-6.19,6.18H240.9V92.43h6.19a6.19,6.19,0,0,1,6.19,6.19Z" transform="translate(-24.33 -24.36)"/><path id="Path_101" data-name="Path 101" class="cls-1" d="M191.26,81.4l-12.09-2.69-9.43,42.44-9.42-42.43L148.23,81.4l13.46,60.54H177.8Z" transform="translate(-24.33 -24.36)"/><path id="Path_102" data-name="Path 102" class="cls-1" d="M248.05,197.62h-24.6l-7.59-23.38a6.19,6.19,0,0,0-11.76,0l-7.62,23.38h-24.6a6.19,6.19,0,0,0-3.64,11.2l19.9,14.46-7.6,23.4a6.19,6.19,0,0,0,9.52,6.91L210,239.13l19.9,14.46a6.19,6.19,0,0,0,9.53-6.91l-7.6-23.4,19.9-14.46a6.19,6.19,0,0,0-3.64-11.2Zm-29.43,25.2,3.1,9.57-8.13-5.91a6.21,6.21,0,0,0-7.28,0l-8.13,5.91,3.1-9.57a6.17,6.17,0,0,0-2.26-6.9l-8.1-5.91H201a6.2,6.2,0,0,0,5.89-4.28l3.09-9.56,3.1,9.56a6.18,6.18,0,0,0,5.88,4.28H229l-8.13,5.91a6.17,6.17,0,0,0-2.23,6.9Z" transform="translate(-24.33 -24.36)"/></svg>