<svg id="Layer_1" data-name="Layer 1" xmlns="http://www.w3.org/2000/svg" viewBox="0 0 144.33 144.33"><defs><style>.cls-1{fill:#42b649;}</style></defs><title>youtube-icon</title><path id="Path_56" data-name="Path 56" class="cls-1" d="M79.81,113.12,103.3,99.6,79.81,86.08Z" transform="translate(-16.64 -27.44)"/><path id="Path_57" data-name="Path 57" class="cls-1" d="M88.8,27.44A72.17,72.17,0,1,0,161,99.6,72.16,72.16,0,0,0,88.8,27.44Zm45.1,72.24A119.51,119.51,0,0,1,132,121.37a11.3,11.3,0,0,1-7.95,7.95c-7.06,1.85-35.28,1.85-35.28,1.85s-28.16,0-35.29-1.93a11.3,11.3,0,0,1-8-8A117.67,117.67,0,0,1,43.71,99.6a118.61,118.61,0,0,1,1.85-21.69,11.53,11.53,0,0,1,8-8C60.57,68,88.8,68,88.8,68S117,68,124.09,70a11.31,11.31,0,0,1,7.95,8,112.71,112.71,0,0,1,1.85,21.77Z" transform="translate(-16.64 -27.44)"/></svg>